<svg width="4000" height="875" viewBox="0 0 4000 875" fill="none" xmlns="http://www.w3.org/2000/svg">
<path d="M597.585 125.846C599.035 142.666 567.522 156.2 527.209 156.2C486.897 156.2 455.379 142.666 456.829 125.846C458.183 109.895 489.7 96.9419 527.209 96.9419C564.718 96.9419 596.135 109.895 597.585 125.846Z" fill="white"/>
<path d="M410.542 132.138C428.329 146.348 413.637 166.359 376.805 176.992C338.91 187.916 294.533 184.726 278.485 169.549C263.211 155.145 280.713 135.135 316.772 125.081C351.961 115.317 393.527 118.507 410.542 132.138Z" fill="white"/>
<path d="M238.167 188.197C271.229 195.544 277.223 217.585 250.445 237.885C222.216 259.249 170.496 270.462 136.274 262.342C103.018 254.512 100.796 230.924 130.184 210.334C158.123 190.71 206.074 181.044 238.266 188.197H238.167Z" fill="white"/>
<path d="M110.75 292.683C156.476 287.85 186.732 305.734 178.128 332.994C168.944 362.092 120.8 390.996 71.014 396.989C21.2276 402.983 -7.9654 382.779 5.47209 352.425C18.0395 324.004 65.0237 297.517 110.75 292.683Z" fill="white"/>
<path d="M72.7606 434.788C122.644 412.168 176.682 416.904 194.47 444.938C213.418 474.906 186.544 520.244 133.375 546.731C78.0778 574.282 19.88 569.448 4.31572 535.228C-10.0885 503.327 21.0408 458.182 72.7606 434.788Z" fill="white"/>
<path d="M173.104 580.656C209.452 538.798 274.805 521.205 320.048 539.959C367.321 559.486 378.92 611.204 344.891 657.218C307.962 706.906 237.004 729.333 187.217 705.262C139.751 682.255 133.854 625.704 173.104 580.656Z" fill="white"/>
<path d="M415.552 671.248C418.549 618.756 468.529 577.865 527.306 577.962C586.083 577.962 636.063 618.756 639.06 671.248C642.25 728.766 592.173 777.583 527.306 777.583C462.439 777.583 412.362 728.862 415.552 671.248Z" fill="white"/>
<path d="M709.633 657.218C675.604 611.204 687.111 559.486 734.481 539.959C779.82 521.205 845.071 538.798 881.42 580.656C920.573 625.704 914.676 682.352 867.307 705.262C817.52 729.333 746.562 706.906 709.633 657.218Z" fill="white"/>
<path d="M921.152 546.731C867.983 520.244 841.105 474.809 860.052 444.938C877.84 416.904 931.782 412.168 981.762 434.788C1033.58 458.182 1064.61 503.327 1050.21 535.228C1034.74 569.448 976.546 574.379 921.152 546.731Z" fill="white"/>
<path d="M983.506 397.102C933.72 391.108 885.576 362.204 876.392 333.107C867.788 305.846 898.049 287.963 943.775 292.796C989.501 297.533 1036.49 324.117 1049.05 352.537C1062.49 382.891 1033.29 403.095 983.506 397.102Z" fill="white"/>
<path d="M918.261 262.342C883.942 270.462 832.319 259.249 804.09 237.885C777.215 217.585 783.209 195.544 816.368 188.197C848.56 181.044 896.414 190.71 924.449 210.334C953.838 230.924 951.616 254.512 918.36 262.342H918.261Z" fill="white"/>
<path d="M776.037 169.444C759.989 184.524 715.617 187.811 677.722 176.888C640.889 166.254 626.193 146.243 643.981 132.033C660.995 118.403 702.566 115.213 737.755 124.976C773.814 135.03 791.311 155.04 776.037 169.444Z" fill="white"/>
<path d="M604.169 200.476C605.909 221.356 571.494 238.37 527.218 238.37C482.942 238.37 448.522 221.356 450.262 200.476C451.906 180.755 486.325 164.805 527.218 164.805C568.11 164.805 602.525 180.755 604.169 200.476Z" fill="white"/>
<path d="M430.831 204.62C460.027 218.734 457.899 243.964 424.837 261.171C390.325 279.151 337.834 281.375 308.929 265.908C281.184 251.117 287.468 225.307 321.593 208.777C354.365 192.826 402.796 191.086 430.831 204.62Z" fill="white"/>
<path d="M297.993 277.425C343.816 274.718 378.041 293.859 374.174 320.443C370.018 348.864 326.028 374.868 276.048 378.155C226.068 381.441 192.528 360.174 200.938 331.077C208.769 303.816 252.17 279.939 297.993 277.329V277.425Z" fill="white"/>
<path d="M282.541 391.791C321.983 367.237 379.6 364.627 412.468 385.701C447.077 407.838 443.98 447.763 404.151 475.313C362.099 504.411 299.071 507.891 264.849 482.467C232.464 458.396 240.972 417.602 282.541 391.791Z" fill="white"/>
<path d="M428.129 481.779C430.643 444.272 475.015 414.691 527.219 414.691C579.422 414.691 623.794 444.272 626.308 481.779C629.015 522.284 584.642 556.021 527.219 556.021C469.795 556.021 425.422 522.284 428.129 481.779Z" fill="white"/>
<path d="M650.28 475.313C610.451 447.763 607.354 407.838 641.963 385.701C674.832 364.627 732.448 367.237 771.89 391.791C813.46 417.602 821.968 458.493 789.582 482.467C755.36 507.794 692.333 504.411 650.28 475.313Z" fill="white"/>
<path d="M778.379 378.155C728.399 374.868 684.409 348.864 680.252 320.443C676.385 293.859 710.514 274.718 756.434 277.425C802.257 280.035 845.663 303.912 853.493 331.173C861.904 360.27 828.358 381.537 778.379 378.251V378.155Z" fill="white"/>
<path d="M745.605 265.913C716.7 281.38 664.205 279.157 629.693 261.176C596.631 243.969 594.508 218.739 623.703 204.625C651.738 191.091 700.072 192.735 732.941 208.782C767.066 225.409 773.35 251.123 745.605 265.913Z" fill="white"/>
<path d="M3652.75 696.45C3443.52 696.45 3306.15 589.094 3306.15 424.416V423.445C3306.15 258.281 3443.52 150.925 3652.75 150.925C3862.45 150.925 3999.34 258.281 3999.34 423.445V424.416C3999.34 589.094 3862.45 696.45 3652.75 696.45ZM3652.75 620.669C3793.52 620.669 3897.89 548.775 3897.89 424.416V423.445C3897.89 298.6 3793.52 226.706 3652.75 226.706C3512.46 226.706 3407.6 298.6 3407.6 423.445V424.416C3407.6 548.775 3512.46 620.669 3652.75 620.669Z" fill="white"/>
<path d="M3179.41 682.72C3040.59 682.72 2989.14 641.448 2989.14 502.577V241.829V164.625V0.508362H3084.28V164.625H3275.03V241.829H3084.28V488.495C3084.28 584.151 3110.49 605.516 3201.73 605.516H3269.69V682.72H3179.41Z" fill="white"/>
<path d="M2296.56 682.717V164.641H2391.71V247.184C2428.61 192.803 2502.88 151.531 2622.8 151.531C2789.31 151.531 2890.29 233.588 2890.29 394.304V682.717H2795.14V414.211C2795.14 289.911 2721.35 228.733 2593.18 228.733C2465.99 228.733 2391.71 291.854 2391.71 416.153V682.717H2296.56Z" fill="white"/>
<path d="M2084.82 682.72V164.659H2180.01V682.72H2084.82ZM2084.82 92.8023V0.508362H2180.01V92.8023H2084.82Z" fill="white"/>
<path d="M1677.42 696.309C1550.26 696.309 1467.28 652.125 1426.02 597.258V874.017H1330.9V164.641H1426.02V250.096C1467.28 195.23 1550.26 151.531 1677.42 151.531C1853.1 151.531 1994.81 250.582 1994.81 423.434V424.406C1994.81 597.258 1853.1 696.309 1677.42 696.309ZM1657.03 620.564C1774.48 620.564 1893.38 563.756 1893.38 424.406V423.434C1893.38 284.084 1774.48 227.276 1657.03 227.276C1540.56 227.276 1420.69 284.57 1420.69 423.434V424.406C1420.69 562.785 1540.56 620.564 1657.03 620.564Z" fill="white"/>
</svg>
