<svg width="4000" height="874" viewBox="0 0 4000 874" fill="none" xmlns="http://www.w3.org/2000/svg">
<path d="M596.659 125.309C598.109 142.126 566.603 155.656 526.3 155.656C485.996 155.656 454.486 142.126 455.935 125.309C457.288 109.362 488.799 96.4116 526.3 96.4116C563.8 96.4116 595.209 109.362 596.659 125.309Z" fill="#387F5C"/>
<path d="M409.658 131.6C427.441 145.807 412.753 165.813 375.929 176.444C338.042 187.365 293.675 184.176 277.631 169.002C262.36 154.602 279.859 134.596 315.909 124.545C351.09 114.783 392.647 117.972 409.658 131.6Z" fill="#387F5C"/>
<path d="M237.322 187.647C270.376 194.992 276.369 217.027 249.597 237.323C221.375 258.682 169.666 269.893 135.452 261.775C102.204 253.946 99.9818 230.364 129.364 209.779C157.296 190.159 205.236 180.495 237.421 187.647H237.322Z" fill="#387F5C"/>
<path d="M109.933 292.108C155.649 287.275 185.898 305.155 177.296 332.409C168.114 361.5 119.982 390.398 70.2064 396.39C20.4313 402.382 -8.75509 382.183 4.67936 351.836C17.2439 323.421 64.2175 296.94 109.933 292.108Z" fill="#387F5C"/>
<path d="M71.9519 434.186C121.824 411.57 175.85 416.306 193.634 444.334C212.577 474.294 185.71 519.622 132.552 546.103C77.2679 573.648 19.0832 568.815 3.52244 534.602C-10.8785 502.709 20.2438 457.574 71.9519 434.186Z" fill="#387F5C"/>
<path d="M172.269 580.014C208.61 538.165 273.948 520.576 319.18 539.325C366.442 558.848 378.039 610.554 344.018 656.558C307.097 706.235 236.155 728.657 186.38 704.592C138.924 681.59 133.029 625.051 172.269 580.014Z" fill="#387F5C"/>
<path d="M414.665 670.586C417.661 618.107 467.63 577.225 526.393 577.321C585.157 577.321 635.126 618.107 638.122 670.586C641.312 728.091 591.246 776.898 526.393 776.898C461.541 776.898 411.475 728.188 414.665 670.586Z" fill="#387F5C"/>
<path d="M708.68 656.558C674.659 610.554 686.164 558.848 733.523 539.325C778.852 520.576 844.088 538.165 880.429 580.014C919.572 625.051 913.677 681.686 866.318 704.592C816.543 728.657 745.601 706.235 708.68 656.558Z" fill="#387F5C"/>
<path d="M920.15 546.103C866.992 519.622 840.12 474.198 859.064 444.334C876.848 416.306 930.777 411.57 980.746 434.186C1032.55 457.574 1063.58 502.709 1049.18 534.602C1033.71 568.815 975.531 573.744 920.15 546.103Z" fill="#387F5C"/>
<path d="M982.493 396.501C932.718 390.509 884.585 361.611 875.403 332.521C866.801 305.266 897.055 287.387 942.771 292.219C988.487 296.955 1035.46 323.532 1048.02 351.947C1061.46 382.294 1032.27 402.493 982.493 396.501Z" fill="#387F5C"/>
<path d="M917.261 261.775C882.95 269.893 831.338 258.682 803.116 237.323C776.247 217.027 782.239 194.992 815.391 187.647C847.575 180.495 895.419 190.159 923.448 209.779C952.83 230.364 950.608 253.946 917.36 261.775H917.261Z" fill="#387F5C"/>
<path d="M775.07 168.9C759.026 183.976 714.664 187.263 676.777 176.342C639.953 165.71 625.26 145.704 643.044 131.497C660.054 117.87 701.616 114.681 736.797 124.442C772.848 134.493 790.341 154.499 775.07 168.9Z" fill="#387F5C"/>
<path d="M603.239 199.926C604.978 220.802 570.571 237.812 526.305 237.812C482.039 237.812 447.627 220.802 449.367 199.926C451.01 180.21 485.422 164.264 526.305 164.264C567.188 164.264 601.595 180.21 603.239 199.926Z" fill="#387F5C"/>
<path d="M429.943 204.069C459.131 218.18 457.004 243.405 423.949 260.608C389.445 278.584 336.966 280.807 308.068 265.343C280.329 250.556 286.612 224.752 320.729 208.225C353.494 192.278 401.914 190.539 429.943 204.069Z" fill="#387F5C"/>
<path d="M297.134 276.855C342.947 274.149 377.165 293.285 373.299 319.863C369.143 348.277 325.163 374.276 275.194 377.562C225.226 380.848 191.693 359.585 200.101 330.494C207.93 303.24 251.322 279.368 297.134 276.759V276.855Z" fill="#387F5C"/>
<path d="M281.685 391.196C321.118 366.648 378.721 364.039 411.583 385.108C446.184 407.24 443.087 447.155 403.267 474.7C361.224 503.79 298.211 507.27 263.997 481.851C231.619 457.786 240.125 417.001 281.685 391.196Z" fill="#387F5C"/>
<path d="M427.239 481.16C429.752 443.66 474.114 414.086 526.306 414.086C578.497 414.086 622.86 443.66 625.373 481.16C628.079 521.655 583.716 555.384 526.306 555.384C468.895 555.384 424.532 521.655 427.239 481.16Z" fill="#387F5C"/>
<path d="M649.342 474.7C609.522 447.155 606.426 407.24 641.027 385.108C673.888 364.039 731.491 366.648 770.925 391.196C812.485 417.001 820.991 457.883 788.613 481.851C754.398 507.173 691.385 503.79 649.342 474.7Z" fill="#387F5C"/>
<path d="M777.411 377.562C727.442 374.276 683.462 348.277 679.306 319.863C675.44 293.285 709.562 274.149 755.471 276.855C801.283 279.464 844.68 303.336 852.508 330.591C860.917 359.681 827.379 380.944 777.411 377.658V377.562Z" fill="#387F5C"/>
<path d="M744.646 265.342C715.747 280.805 663.263 278.583 628.759 260.606C595.705 243.403 593.582 218.178 622.77 204.068C650.799 190.537 699.122 192.18 731.984 208.224C766.101 224.847 772.384 250.555 744.646 265.342Z" fill="#387F5C"/>
<path d="M3653.48 695.784C3444.31 695.784 3306.96 588.452 3306.96 423.811V422.84C3306.96 257.714 3444.31 150.382 3653.48 150.382C3863.14 150.382 4000 257.714 4000 422.84V423.811C4000 588.452 3863.14 695.784 3653.48 695.784ZM3653.48 620.02C3794.22 620.02 3898.57 548.141 3898.57 423.811V422.84C3898.57 298.024 3794.22 226.145 3653.48 226.145C3513.22 226.145 3408.39 298.024 3408.39 422.84V423.811C3408.39 548.141 3513.22 620.02 3653.48 620.02Z" fill="#387F5C"/>
<path d="M3180.25 682.058C3041.46 682.058 2990.03 640.794 2990.03 501.955V241.266V164.079V0H3085.14V164.079H3275.84V241.266H3085.14V487.877C3085.14 583.511 3111.34 604.871 3202.57 604.871H3270.51V682.058H3180.25Z" fill="#387F5C"/>
<path d="M2297.6 682.053V164.094H2392.73V246.618C2429.62 192.249 2503.88 150.987 2623.76 150.987C2790.24 150.987 2891.2 233.026 2891.2 393.704V682.053H2796.07V413.607C2796.07 289.336 2722.29 228.171 2594.15 228.171C2466.99 228.171 2392.73 291.278 2392.73 415.549V682.053H2297.6Z" fill="#387F5C"/>
<path d="M2085.91 682.058V164.114H2181.08V682.058H2085.91ZM2085.91 92.273V0H2181.08V92.273H2085.91Z" fill="#387F5C"/>
<path d="M1678.6 695.641C1551.47 695.641 1468.51 651.467 1427.26 596.613V873.309H1332.16V164.094H1427.26V249.53C1468.51 194.676 1551.47 150.987 1678.6 150.987C1854.24 150.987 1995.92 250.015 1995.92 422.829V423.8C1995.92 596.613 1854.24 695.641 1678.6 695.641ZM1658.22 619.914C1775.64 619.914 1894.51 563.119 1894.51 423.8V422.829C1894.51 283.51 1775.64 226.714 1658.22 226.714C1541.77 226.714 1421.93 283.995 1421.93 422.829V423.8C1421.93 562.148 1541.77 619.914 1658.22 619.914Z" fill="#387F5C"/>
</svg>
