<svg width="4000" height="875" viewBox="0 0 4000 875" fill="none" xmlns="http://www.w3.org/2000/svg">
<path d="M597.136 126.305C598.586 143.125 567.073 156.659 526.76 156.659C486.448 156.659 454.93 143.125 456.38 126.305C457.733 110.354 489.251 97.4009 526.76 97.4009C564.269 97.4009 595.686 110.354 597.136 126.305Z" fill="#555555"/>
<path d="M410.092 132.597C427.88 146.807 413.188 166.818 376.356 177.451C338.46 188.375 294.084 185.184 278.036 170.007C262.762 155.604 280.264 135.594 316.323 125.54C351.512 115.776 393.078 118.966 410.092 132.597Z" fill="#555555"/>
<path d="M237.717 188.656C270.779 196.003 276.773 218.043 249.995 238.344C221.767 259.708 170.046 270.921 135.824 262.801C102.569 254.971 100.347 231.383 129.735 210.793C157.673 191.169 205.625 181.502 237.817 188.656H237.717Z" fill="#555555"/>
<path d="M110.3 293.142C156.026 288.309 186.282 306.193 177.678 333.453C168.495 362.551 120.351 391.455 70.5645 397.448C20.7782 403.441 -8.41486 383.238 5.02263 352.884C17.5901 324.463 64.5742 297.976 110.3 293.142Z" fill="#555555"/>
<path d="M72.3112 435.247C122.194 412.627 176.233 417.363 194.02 445.397C212.968 475.365 186.095 520.703 132.925 547.19C77.6284 574.741 19.4305 569.907 3.86626 535.686C-10.538 503.786 20.5914 458.641 72.3112 435.247Z" fill="#555555"/>
<path d="M172.654 581.115C209.003 539.257 274.355 521.664 319.598 540.417C366.871 559.945 378.47 611.663 344.441 657.677C307.512 707.365 236.554 729.792 186.768 705.721C139.302 682.714 133.405 626.162 172.654 581.115Z" fill="#555555"/>
<path d="M415.102 671.706C418.099 619.215 468.079 578.324 526.856 578.421C585.633 578.421 635.614 619.215 638.61 671.706C641.801 729.224 591.724 778.042 526.856 778.042C461.989 778.042 411.912 729.321 415.102 671.706Z" fill="#555555"/>
<path d="M709.184 657.677C675.155 611.663 686.662 559.945 734.032 540.417C779.371 521.664 844.622 539.257 880.971 581.115C920.123 626.162 914.227 682.811 866.857 705.721C817.071 729.792 746.113 707.365 709.184 657.677Z" fill="#555555"/>
<path d="M920.703 547.19C867.533 520.703 840.655 475.268 859.603 445.397C877.391 417.363 931.333 412.627 981.312 435.247C1033.13 458.641 1064.16 503.786 1049.76 535.687C1034.29 569.907 976.097 574.837 920.703 547.19Z" fill="#555555"/>
<path d="M983.057 397.56C933.27 391.567 885.127 362.663 875.943 333.566C867.339 306.305 897.6 288.421 943.326 293.255C989.052 297.992 1036.04 324.576 1048.6 352.996C1062.04 383.35 1032.84 403.554 983.057 397.56Z" fill="#555555"/>
<path d="M917.812 262.801C883.493 270.921 831.869 259.708 803.641 238.344C776.766 218.043 782.76 196.003 815.918 188.656C848.11 181.502 895.965 191.169 924 210.793C953.388 231.383 951.166 254.971 917.911 262.801H917.812Z" fill="#555555"/>
<path d="M775.587 169.903C759.54 184.983 715.168 188.27 677.272 177.346C640.44 166.713 625.743 146.702 643.531 132.492C660.545 118.862 702.117 115.672 737.305 125.435C773.364 135.489 790.862 155.499 775.587 169.903Z" fill="#555555"/>
<path d="M603.719 200.934C605.459 221.815 571.044 238.828 526.768 238.828C482.492 238.828 448.073 221.815 449.813 200.934C451.456 181.214 485.876 165.264 526.768 165.264C567.661 165.264 602.076 181.214 603.719 200.934Z" fill="#555555"/>
<path d="M430.382 205.079C459.577 219.192 457.449 244.423 424.387 261.63C389.875 279.61 337.384 281.834 308.479 266.367C280.734 251.576 287.019 225.766 321.144 209.236C353.916 193.285 402.347 191.545 430.382 205.079Z" fill="#555555"/>
<path d="M297.543 277.884C343.366 275.177 377.592 294.318 373.725 320.902C369.568 349.322 325.578 375.327 275.598 378.613C225.619 381.9 192.078 360.633 200.488 331.536C208.319 304.275 251.72 280.398 297.543 277.788V277.884Z" fill="#555555"/>
<path d="M282.092 392.25C321.534 367.696 379.151 365.086 412.019 386.16C446.628 408.297 443.531 448.222 403.702 475.772C361.649 504.87 298.622 508.35 264.4 482.926C232.015 458.855 240.523 418.061 282.092 392.25Z" fill="#555555"/>
<path d="M427.68 482.238C430.193 444.731 474.566 415.15 526.769 415.15C578.972 415.15 623.345 444.731 625.859 482.238C628.565 522.743 584.193 556.48 526.769 556.48C469.346 556.48 424.973 522.743 427.68 482.238Z" fill="#555555"/>
<path d="M649.831 475.772C610.002 448.222 606.905 408.297 641.514 386.16C674.383 365.086 731.999 367.696 771.441 392.25C813.01 418.061 821.518 458.952 789.133 482.926C754.911 508.253 691.884 504.87 649.831 475.772Z" fill="#555555"/>
<path d="M777.929 378.613C727.95 375.327 683.96 349.322 679.803 320.902C675.936 294.318 710.065 275.177 755.984 277.884C801.807 280.494 845.214 304.371 853.044 331.632C861.455 360.729 827.909 381.996 777.929 378.71V378.613Z" fill="#555555"/>
<path d="M745.156 266.372C716.251 281.839 663.755 279.615 629.243 261.635C596.181 244.428 594.058 219.198 623.253 205.084C651.288 191.55 699.622 193.194 732.491 209.241C766.616 225.868 772.901 251.581 745.156 266.372Z" fill="#555555"/>
<path d="M3653.3 696.909C3444.08 696.909 3306.7 589.553 3306.7 424.875V423.903C3306.7 258.74 3444.08 151.384 3653.3 151.384C3863 151.384 3999.89 258.74 3999.89 423.903V424.875C3999.89 589.553 3863 696.909 3653.3 696.909ZM3653.3 621.128C3794.07 621.128 3898.44 549.233 3898.44 424.875V423.903C3898.44 299.059 3794.07 227.164 3653.3 227.164C3513.01 227.164 3408.15 299.059 3408.15 423.903V424.875C3408.15 549.233 3513.01 621.128 3653.3 621.128Z" fill="#555555"/>
<path d="M3179.96 683.179C3041.14 683.179 2989.69 641.906 2989.69 503.035V242.288V165.084V0.967163H3084.83V165.084H3275.58V242.288H3084.83V488.954C3084.83 584.61 3111.04 605.975 3202.29 605.975H3270.24V683.179H3179.96Z" fill="#555555"/>
<path d="M2297.11 683.176V165.1H2392.26V247.642C2429.16 193.261 2503.44 151.99 2623.35 151.99C2789.86 151.99 2890.84 234.047 2890.84 394.762V683.176H2795.69V414.67C2795.69 290.37 2721.9 229.192 2593.73 229.192C2466.54 229.192 2392.26 292.312 2392.26 416.612V683.176H2297.11Z" fill="#555555"/>
<path d="M2085.37 683.179V165.118H2180.56V683.179H2085.37ZM2085.37 93.2611V0.967163H2180.56V93.2611H2085.37Z" fill="#555555"/>
<path d="M1677.97 696.768C1550.82 696.768 1467.83 652.583 1426.58 597.717V874.476H1331.46V165.1H1426.58V250.555C1467.83 195.689 1550.82 151.99 1677.97 151.99C1853.65 151.99 1995.36 251.041 1995.36 423.893V424.864C1995.36 597.717 1853.65 696.768 1677.97 696.768ZM1657.58 621.023C1775.03 621.023 1893.93 564.215 1893.93 424.864V423.893C1893.93 284.543 1775.03 227.735 1657.58 227.735C1541.11 227.735 1421.24 285.028 1421.24 423.893V424.864C1421.24 563.244 1541.11 621.023 1657.58 621.023Z" fill="#555555"/>
</svg>
